<mxfile host="app.diagrams.net" modified="2023-10-31T23:14:39.409Z" agent="Mozilla/5.0 (Windows NT 10.0; Win64; x64) AppleWebKit/537.36 (KHTML, like Gecko) Chrome/118.0.0.0 Safari/537.36" etag="-MsCt0xUcQMek1Cnobkg" version="22.0.8" type="device">
  <diagram name="Página-1" id="Eq5kTXzSdocYtyho2q14">
    <mxGraphModel dx="928" dy="500" grid="1" gridSize="10" guides="1" tooltips="1" connect="1" arrows="1" fold="1" page="1" pageScale="1" pageWidth="827" pageHeight="1169" math="0" shadow="0">
      <root>
        <mxCell id="0" />
        <mxCell id="1" parent="0" />
        <mxCell id="qreE5Q_pIXYyZC-7umUG-2" value="" style="ellipse;whiteSpace=wrap;html=1;aspect=fixed;" vertex="1" parent="1">
          <mxGeometry x="132.5" y="110" width="20" height="20" as="geometry" />
        </mxCell>
        <mxCell id="qreE5Q_pIXYyZC-7umUG-10" value="Cadastro" style="rounded=1;whiteSpace=wrap;html=1;" vertex="1" parent="1">
          <mxGeometry x="107.5" y="150" width="70" height="20" as="geometry" />
        </mxCell>
        <mxCell id="qreE5Q_pIXYyZC-7umUG-11" value="" style="endArrow=none;html=1;rounded=0;" edge="1" parent="1">
          <mxGeometry width="50" height="50" relative="1" as="geometry">
            <mxPoint x="102.5" y="210" as="sourcePoint" />
            <mxPoint x="182.5" y="210" as="targetPoint" />
          </mxGeometry>
        </mxCell>
        <mxCell id="qreE5Q_pIXYyZC-7umUG-13" value="insere dados" style="ellipse;whiteSpace=wrap;html=1;" vertex="1" parent="1">
          <mxGeometry x="100" y="220" width="85" height="60" as="geometry" />
        </mxCell>
        <mxCell id="qreE5Q_pIXYyZC-7umUG-14" value="" style="endArrow=none;html=1;rounded=0;entryX=0.5;entryY=1;entryDx=0;entryDy=0;" edge="1" parent="1" target="qreE5Q_pIXYyZC-7umUG-10">
          <mxGeometry width="50" height="50" relative="1" as="geometry">
            <mxPoint x="142.5" y="210" as="sourcePoint" />
            <mxPoint x="152.5" y="190" as="targetPoint" />
          </mxGeometry>
        </mxCell>
        <mxCell id="qreE5Q_pIXYyZC-7umUG-15" value="CPF&amp;nbsp;" style="ellipse;whiteSpace=wrap;html=1;" vertex="1" parent="1">
          <mxGeometry x="242.5" y="210" width="40" height="30" as="geometry" />
        </mxCell>
        <mxCell id="qreE5Q_pIXYyZC-7umUG-23" value="Senha" style="ellipse;whiteSpace=wrap;html=1;" vertex="1" parent="1">
          <mxGeometry x="242.5" y="260" width="40" height="30" as="geometry" />
        </mxCell>
        <mxCell id="qreE5Q_pIXYyZC-7umUG-25" value="Consulta SSP" style="rounded=0;whiteSpace=wrap;html=1;" vertex="1" parent="1">
          <mxGeometry x="227.5" y="120" width="70" height="30" as="geometry" />
        </mxCell>
        <mxCell id="qreE5Q_pIXYyZC-7umUG-26" value="" style="endArrow=none;html=1;rounded=0;exitX=1;exitY=0.5;exitDx=0;exitDy=0;" edge="1" parent="1" source="qreE5Q_pIXYyZC-7umUG-13" target="qreE5Q_pIXYyZC-7umUG-15">
          <mxGeometry width="50" height="50" relative="1" as="geometry">
            <mxPoint x="352.5" y="260" as="sourcePoint" />
            <mxPoint x="402.5" y="210" as="targetPoint" />
          </mxGeometry>
        </mxCell>
        <mxCell id="qreE5Q_pIXYyZC-7umUG-27" value="" style="endArrow=none;html=1;rounded=0;exitX=0.949;exitY=0.755;exitDx=0;exitDy=0;exitPerimeter=0;entryX=0;entryY=0.5;entryDx=0;entryDy=0;" edge="1" parent="1" source="qreE5Q_pIXYyZC-7umUG-13" target="qreE5Q_pIXYyZC-7umUG-23">
          <mxGeometry width="50" height="50" relative="1" as="geometry">
            <mxPoint x="190.5" y="243" as="sourcePoint" />
            <mxPoint x="252.5" y="252" as="targetPoint" />
          </mxGeometry>
        </mxCell>
        <mxCell id="qreE5Q_pIXYyZC-7umUG-30" value="" style="endArrow=classic;html=1;rounded=0;" edge="1" parent="1" source="qreE5Q_pIXYyZC-7umUG-25" target="qreE5Q_pIXYyZC-7umUG-15">
          <mxGeometry width="50" height="50" relative="1" as="geometry">
            <mxPoint x="352.5" y="260" as="sourcePoint" />
            <mxPoint x="402.5" y="210" as="targetPoint" />
          </mxGeometry>
        </mxCell>
        <mxCell id="qreE5Q_pIXYyZC-7umUG-31" value="" style="endArrow=none;html=1;rounded=0;" edge="1" parent="1" source="qreE5Q_pIXYyZC-7umUG-15">
          <mxGeometry width="50" height="50" relative="1" as="geometry">
            <mxPoint x="352.5" y="260" as="sourcePoint" />
            <mxPoint x="332.5" y="240" as="targetPoint" />
          </mxGeometry>
        </mxCell>
        <mxCell id="qreE5Q_pIXYyZC-7umUG-32" value="" style="endArrow=none;html=1;rounded=0;exitX=1;exitY=0.5;exitDx=0;exitDy=0;" edge="1" parent="1" source="qreE5Q_pIXYyZC-7umUG-23">
          <mxGeometry width="50" height="50" relative="1" as="geometry">
            <mxPoint x="352.5" y="260" as="sourcePoint" />
            <mxPoint x="332.5" y="260" as="targetPoint" />
          </mxGeometry>
        </mxCell>
        <mxCell id="qreE5Q_pIXYyZC-7umUG-33" value="Verificação de dados" style="ellipse;whiteSpace=wrap;html=1;" vertex="1" parent="1">
          <mxGeometry x="332.5" y="225" width="70" height="50" as="geometry" />
        </mxCell>
        <mxCell id="qreE5Q_pIXYyZC-7umUG-35" value="" style="rhombus;whiteSpace=wrap;html=1;" vertex="1" parent="1">
          <mxGeometry x="492.5" y="235" width="30" height="30" as="geometry" />
        </mxCell>
        <mxCell id="qreE5Q_pIXYyZC-7umUG-36" value="" style="endArrow=none;html=1;rounded=0;entryX=0;entryY=0.5;entryDx=0;entryDy=0;exitX=1;exitY=0.5;exitDx=0;exitDy=0;" edge="1" parent="1" source="qreE5Q_pIXYyZC-7umUG-33" target="qreE5Q_pIXYyZC-7umUG-35">
          <mxGeometry width="50" height="50" relative="1" as="geometry">
            <mxPoint x="352.5" y="260" as="sourcePoint" />
            <mxPoint x="402.5" y="210" as="targetPoint" />
          </mxGeometry>
        </mxCell>
        <mxCell id="qreE5Q_pIXYyZC-7umUG-37" value="" style="endArrow=none;html=1;rounded=0;exitX=0.5;exitY=0;exitDx=0;exitDy=0;" edge="1" parent="1" source="qreE5Q_pIXYyZC-7umUG-35">
          <mxGeometry width="50" height="50" relative="1" as="geometry">
            <mxPoint x="352.5" y="260" as="sourcePoint" />
            <mxPoint x="507.5" y="140" as="targetPoint" />
          </mxGeometry>
        </mxCell>
        <mxCell id="qreE5Q_pIXYyZC-7umUG-38" value="" style="endArrow=none;html=1;rounded=0;exitX=0.5;exitY=0;exitDx=0;exitDy=0;" edge="1" parent="1">
          <mxGeometry width="50" height="50" relative="1" as="geometry">
            <mxPoint x="507.16" y="360" as="sourcePoint" />
            <mxPoint x="507.16" y="265" as="targetPoint" />
          </mxGeometry>
        </mxCell>
        <mxCell id="qreE5Q_pIXYyZC-7umUG-39" value="continua na tela de cadastro" style="ellipse;whiteSpace=wrap;html=1;" vertex="1" parent="1">
          <mxGeometry x="590" y="120" width="100" height="50" as="geometry" />
        </mxCell>
        <mxCell id="qreE5Q_pIXYyZC-7umUG-40" value="" style="endArrow=none;html=1;rounded=0;" edge="1" parent="1" target="qreE5Q_pIXYyZC-7umUG-39">
          <mxGeometry width="50" height="50" relative="1" as="geometry">
            <mxPoint x="510" y="140" as="sourcePoint" />
            <mxPoint x="530" y="240" as="targetPoint" />
            <Array as="points">
              <mxPoint x="510" y="140" />
            </Array>
          </mxGeometry>
        </mxCell>
        <mxCell id="qreE5Q_pIXYyZC-7umUG-41" value="CPF&amp;nbsp;&lt;br&gt;" style="text;html=1;align=center;verticalAlign=middle;resizable=0;points=[];autosize=1;strokeColor=none;fillColor=none;" vertex="1" parent="1">
          <mxGeometry x="540" y="120" width="50" height="30" as="geometry" />
        </mxCell>
        <mxCell id="qreE5Q_pIXYyZC-7umUG-42" value="Incorreto" style="text;html=1;align=center;verticalAlign=middle;resizable=0;points=[];autosize=1;strokeColor=none;fillColor=none;" vertex="1" parent="1">
          <mxGeometry x="530" y="140" width="70" height="30" as="geometry" />
        </mxCell>
        <mxCell id="qreE5Q_pIXYyZC-7umUG-48" value="CPF" style="text;html=1;align=center;verticalAlign=middle;resizable=0;points=[];autosize=1;strokeColor=none;fillColor=none;" vertex="1" parent="1">
          <mxGeometry x="515" y="338" width="50" height="30" as="geometry" />
        </mxCell>
        <mxCell id="qreE5Q_pIXYyZC-7umUG-50" value="correto&lt;br&gt;" style="text;html=1;align=center;verticalAlign=middle;resizable=0;points=[];autosize=1;strokeColor=none;fillColor=none;" vertex="1" parent="1">
          <mxGeometry x="510" y="358" width="60" height="30" as="geometry" />
        </mxCell>
        <mxCell id="qreE5Q_pIXYyZC-7umUG-57" value="" style="endArrow=none;html=1;rounded=0;exitX=0.01;exitY=0.074;exitDx=0;exitDy=0;exitPerimeter=0;" edge="1" parent="1" source="qreE5Q_pIXYyZC-7umUG-50" target="qreE5Q_pIXYyZC-7umUG-56">
          <mxGeometry width="50" height="50" relative="1" as="geometry">
            <mxPoint x="511" y="360" as="sourcePoint" />
            <mxPoint x="660" y="360" as="targetPoint" />
          </mxGeometry>
        </mxCell>
        <mxCell id="qreE5Q_pIXYyZC-7umUG-56" value="cadastro bem sucedido&amp;nbsp;" style="ellipse;whiteSpace=wrap;html=1;" vertex="1" parent="1">
          <mxGeometry x="620" y="336" width="80" height="52" as="geometry" />
        </mxCell>
        <mxCell id="qreE5Q_pIXYyZC-7umUG-58" value="" style="endArrow=none;html=1;rounded=0;" edge="1" parent="1">
          <mxGeometry width="50" height="50" relative="1" as="geometry">
            <mxPoint x="730" y="410" as="sourcePoint" />
            <mxPoint x="730" y="120" as="targetPoint" />
          </mxGeometry>
        </mxCell>
        <mxCell id="qreE5Q_pIXYyZC-7umUG-59" value="" style="endArrow=none;html=1;rounded=0;" edge="1" parent="1">
          <mxGeometry width="50" height="50" relative="1" as="geometry">
            <mxPoint x="730" y="230" as="sourcePoint" />
            <mxPoint x="770" y="230" as="targetPoint" />
          </mxGeometry>
        </mxCell>
        <mxCell id="qreE5Q_pIXYyZC-7umUG-60" value="" style="ellipse;whiteSpace=wrap;html=1;aspect=fixed;" vertex="1" parent="1">
          <mxGeometry x="770" y="220" width="20" height="20" as="geometry" />
        </mxCell>
        <mxCell id="qreE5Q_pIXYyZC-7umUG-61" value="" style="endArrow=classic;html=1;rounded=0;exitX=1.004;exitY=0.253;exitDx=0;exitDy=0;exitPerimeter=0;" edge="1" parent="1" source="qreE5Q_pIXYyZC-7umUG-56">
          <mxGeometry width="50" height="50" relative="1" as="geometry">
            <mxPoint x="400" y="230" as="sourcePoint" />
            <mxPoint x="730" y="300" as="targetPoint" />
          </mxGeometry>
        </mxCell>
      </root>
    </mxGraphModel>
  </diagram>
</mxfile>
